{"title":"Beatles Documentary 2009 XviD AVI 750Mb","uid":5190429,"size":749909868,"categoryP":"video","categoryS":"tv_shows","magnet":"?xt=urn:btih:b5e518469deb50298b9e0485178c9f755b2fd063&amp;dn=Beatles+Documentary+2009+XviD+AVI+750Mb&amp;tr=udp%3A%2F%2Ftracker.openbittorrent.com%3A80&amp;tr=udp%3A%2F%2Fopen.demonii.com%3A1337&amp;tr=udp%3A%2F%2Ftracker.coppersurfer.tk%3A6969&amp;tr=udp%3A%2F%2Fexodus.desync.com%3A6969","seeders":1,"leechers":0,"uploader":"JackAssin","files":5,"time":1259662622,"description":"\nBeatles On Record 2009\n======================\n\nA Beatles historical documentary, including dialogue and clips of a unique\nnature, with some new ( language censored ;) material.\n\nThis apparently originated from BBC2, this version altered by U.S. History\nchannel.\n\nGood quality XviD AVI, with separate MP3 and MD5 files.\n\n----------\n\nGeneral\nFile size                        : 675 MiB [708 Mb]\nOverall bit rate                 : 2 138 Kbps\n\nVideo\nFormat                           : MPEG-4 Visual\nCodec ID                         : XVID\nDuration                         : 44mn 7s\nBit rate                         : 1 998 Kbps\nWidth                            : 720 pixels\nHeight                           : 480 pixels\nFrame rate                       : 29.970 fps\nStream size                      : 631 MiB (93%)\nWriting library                  : XviD 50\n\nAudio\nFormat                           : MPEG Audio\nFormat version                   : Version 1\nFormat profile                   : Layer 3\nCodec ID                         : MP3\nDuration                         : 44mn 7s\nBit rate mode                    : Constant\nBit rate                         : 128 Kbps\nChannel(s)                       : 2 channels\nSampling rate                    : 48.0 KHz\nResolution                       : 16 bits\nStream size                      : 40.4 MiB (6%)\nFile Size                        : 43 Mb\n\n----------\n\nPlease seed as much as you can and remember that others depend upon you,\njust as you depend upon them.\n\nDistribute elsewhere, as much as you please.\n\nOriginal seed will end at 2x.\n\n----\n\n57 BeAtLeSoNrEcOrD09-avi.md5\n57 BeAtLeSoNrEcOrD09-mp3.md5\n707,546,242 BeAtLeSoNrEcOrD09.avi\n42,361,689 BeAtLeSoNrEcOrD09.mp3\n1,634 Readme.nfo\n5 File(s)    749,909,679 bytes\n\n","torrent":{"xt":"urn:btih:b5e518469deb50298b9e0485178c9f755b2fd063","amp;dn":"Beatles+Documentary+2009+XviD+AVI+750Mb","amp;tr":["udp%3A%2F%2Ftracker.openbittorrent.com%3A80","udp%3A%2F%2Fopen.demonii.com%3A1337","udp%3A%2F%2Ftracker.coppersurfer.tk%3A6969","udp%3A%2F%2Fexodus.desync.com%3A6969"],"infoHash":"b5e518469deb50298b9e0485178c9f755b2fd063","infoHashBuffer":{"type":"Buffer","data":[181,229,24,70,157,235,80,41,139,158,4,133,23,140,159,117,91,47,208,99]},"announce":[],"urlList":[]}}